<svg width="375" height="99" viewBox="0 0 375 99" fill="none" xmlns="http://www.w3.org/2000/svg">
<path d="M124.536 64.96C122.168 64.96 120.12 64.768 118.392 64.384C116.696 64.032 115.224 63.616 113.976 63.136L113.112 56.56L117.624 56.032L118.152 59.536C119.08 59.856 120.04 60.096 121.032 60.256C122.024 60.416 123.064 60.496 124.152 60.496C125.368 60.496 126.488 60.352 127.512 60.064C128.536 59.744 129.352 59.28 129.96 58.672C130.568 58.032 130.872 57.232 130.872 56.272C130.872 55.28 130.552 54.416 129.912 53.68C129.304 52.944 128.008 52.416 126.024 52.096L122.568 51.52C119.688 51.008 117.48 50.048 115.944 48.64C114.408 47.232 113.64 45.392 113.64 43.12C113.64 41.296 114.136 39.76 115.128 38.512C116.12 37.264 117.464 36.336 119.16 35.728C120.856 35.088 122.76 34.768 124.872 34.768C125.928 34.768 126.968 34.832 127.992 34.96C129.016 35.088 130.008 35.28 130.968 35.536C131.928 35.792 132.888 36.128 133.848 36.544L134.76 43.6L129.912 44.128L129.288 39.808C128.648 39.584 127.928 39.408 127.128 39.28C126.36 39.152 125.544 39.088 124.68 39.088C122.792 39.088 121.304 39.424 120.216 40.096C119.16 40.736 118.632 41.616 118.632 42.736C118.632 43.856 119.016 44.736 119.784 45.376C120.584 45.984 121.88 46.448 123.672 46.768L127.272 47.344C130.376 47.824 132.584 48.768 133.896 50.176C135.208 51.552 135.864 53.344 135.864 55.552C135.864 57.408 135.512 58.944 134.808 60.16C134.136 61.376 133.24 62.336 132.12 63.04C131 63.744 129.768 64.24 128.424 64.528C127.08 64.816 125.784 64.96 124.536 64.96ZM150.165 64.912C148.597 64.912 147.221 64.608 146.037 64C144.885 63.392 143.989 62.448 143.349 61.168C142.709 59.888 142.389 58.24 142.389 56.224V46.864H138.405V42.544H142.389V38.416L147.669 36.832V42.544H153.477V46.864H147.669V54.688C147.669 56.512 147.909 57.936 148.389 58.96C148.901 59.984 149.733 60.496 150.885 60.496C151.781 60.496 152.853 60.176 154.101 59.536L155.109 63.568C154.373 63.92 153.573 64.224 152.709 64.48C151.877 64.768 151.029 64.912 150.165 64.912ZM174.135 63.04C171.895 64.288 169.607 64.912 167.271 64.912C164.295 64.912 162.023 64.336 160.455 63.184C158.919 62.032 158.151 60.352 158.151 58.144C158.119 53.696 161.047 51.472 166.935 51.472H172.311C172.311 49.52 171.911 48.096 171.111 47.2C170.311 46.272 169.271 45.808 167.991 45.808C167.287 45.808 166.615 45.856 165.975 45.952C165.367 46.048 164.759 46.192 164.151 46.384L163.719 48.736L159.207 48.112L160.071 43.024C161.351 42.576 162.647 42.24 163.959 42.016C165.303 41.76 166.695 41.632 168.135 41.632C171.271 41.632 173.655 42.464 175.287 44.128C176.951 45.76 177.783 48.176 177.783 51.376V59.344L181.815 60.64L180.327 65.152L174.135 63.04ZM167.079 55.024C165.991 55.024 165.159 55.296 164.583 55.84C164.007 56.384 163.719 57.136 163.719 58.096C163.719 59.92 164.967 60.832 167.463 60.832C169.223 60.832 170.839 60.368 172.311 59.44V55.072L167.079 55.024ZM194.228 64.912C192.66 64.912 191.284 64.608 190.1 64C188.948 63.392 188.052 62.448 187.412 61.168C186.772 59.888 186.452 58.24 186.452 56.224V46.864H182.468V42.544H186.452V38.416L191.732 36.832V42.544H197.54V46.864H191.732V54.688C191.732 56.512 191.972 57.936 192.452 58.96C192.964 59.984 193.796 60.496 194.948 60.496C195.844 60.496 196.916 60.176 198.164 59.536L199.172 63.568C198.436 63.92 197.636 64.224 196.772 64.48C195.94 64.768 195.092 64.912 194.228 64.912ZM221.942 62.848C220.886 63.456 219.718 63.952 218.438 64.336C217.158 64.72 215.958 64.912 214.838 64.912C211.574 64.912 209.174 64.192 207.638 62.752C206.134 61.312 205.382 59.072 205.382 56.032V46.864H201.59V42.544H210.854V55.216C210.854 56.944 211.174 58.192 211.814 58.96C212.486 59.728 213.558 60.112 215.03 60.112C215.766 60.112 216.614 59.984 217.574 59.728C218.566 59.472 219.462 59.168 220.262 58.816V46.864H216.47V42.544H225.734V58.864L229.958 60.304L228.47 65.008L221.942 62.848ZM245.929 46.24C245.353 46.048 244.761 45.904 244.153 45.808C243.577 45.68 242.953 45.616 242.281 45.616C241.161 45.616 240.153 45.824 239.257 46.24C238.393 46.656 237.961 47.296 237.961 48.16C237.961 48.896 238.217 49.488 238.729 49.936C239.241 50.384 240.233 50.704 241.705 50.896L244.585 51.328C247.081 51.648 248.889 52.336 250.009 53.392C251.129 54.448 251.689 55.888 251.689 57.712C251.689 59.344 251.257 60.704 250.393 61.792C249.529 62.848 248.377 63.632 246.937 64.144C245.529 64.656 243.977 64.912 242.281 64.912C240.489 64.912 238.873 64.72 237.433 64.336C236.025 63.984 234.729 63.456 233.545 62.752L232.681 57.76L237.241 56.944L237.769 59.584C238.441 59.904 239.129 60.144 239.833 60.304C240.537 60.464 241.257 60.544 241.993 60.544C243.305 60.544 244.441 60.32 245.401 59.872C246.361 59.424 246.841 58.752 246.841 57.856C246.841 57.184 246.601 56.64 246.121 56.224C245.641 55.808 244.681 55.52 243.241 55.36L240.505 54.928C238.201 54.576 236.393 53.856 235.081 52.768C233.769 51.68 233.113 50.24 233.113 48.448C233.113 47.04 233.497 45.824 234.265 44.8C235.033 43.776 236.105 42.992 237.481 42.448C238.857 41.904 240.425 41.632 242.185 41.632C243.689 41.632 245.081 41.808 246.361 42.16C247.641 42.48 248.825 43.024 249.913 43.792L250.777 48.4L246.697 49.168L245.929 46.24ZM266.766 35.728H288.558L291.486 44.512L286.926 46.048L285.054 40.576H276.366V47.344H283.758V52.192H276.318V59.152H282.414V64H266.718V59.152H270.846L270.894 40.576H266.766V35.728ZM294.126 64V59.632H298.158V37.552L293.55 36.16L294.894 31.744L303.63 34.48V59.632H307.662V64H294.126ZM322.061 41.632C324.461 41.632 326.509 42.096 328.205 43.024C329.901 43.952 331.197 45.296 332.093 47.056C332.989 48.784 333.437 50.864 333.437 53.296C333.437 56.944 332.429 59.792 330.413 61.84C328.429 63.888 325.645 64.912 322.061 64.912C319.725 64.912 317.709 64.448 316.013 63.52C314.349 62.592 313.069 61.264 312.173 59.536C311.309 57.776 310.877 55.696 310.877 53.296C310.877 50.864 311.309 48.784 312.173 47.056C313.069 45.296 314.349 43.952 316.013 43.024C317.709 42.096 319.725 41.632 322.061 41.632ZM322.061 46.096C320.141 46.096 318.685 46.72 317.693 47.968C316.733 49.184 316.253 50.96 316.253 53.296C316.253 55.632 316.733 57.424 317.693 58.672C318.685 59.92 320.141 60.544 322.061 60.544C324.045 60.544 325.533 59.92 326.525 58.672C327.517 57.424 328.013 55.632 328.013 53.296C328.013 50.96 327.517 49.184 326.525 47.968C325.533 46.72 324.045 46.096 322.061 46.096ZM342.915 64L337.251 46.864H334.131V42.544H345.699V46.864H342.963L344.931 54.256L346.323 59.392L347.619 54.256L350.259 45.664H355.731L358.419 54.352L359.715 59.44L361.011 54.4L363.267 46.864H360.339V42.544H371.619V46.864H368.547L362.355 64H356.595L352.947 51.472L348.915 64H342.915Z" fill="white"/>
<g clip-path="url(#clip0_45_2)">
<path fill-rule="evenodd" clip-rule="evenodd" d="M38.3339 25.9089C37.077 26.359 35.8479 27.5265 35.0557 29.0234C34.7985 29.5088 33.7156 32.159 32.6491 34.9128C31.5821 37.6666 29.3653 43.3204 27.7225 47.4767C26.0803 51.6324 24.2925 56.1642 23.7502 57.5474C23.2079 58.93 22.6735 60.0719 22.563 60.085C22.4525 60.0981 21.5968 58.563 20.6613 56.674C17.1627 49.6092 15.848 48.8803 6.36938 48.7461L0.116211 48.6579V52.1234V55.589H5.77155C13.0334 55.589 12.6939 55.428 14.8609 59.8972C17.5962 65.5408 21.5322 67.6334 25.627 65.6222C28.2268 64.3454 28.8808 63.278 32.0394 55.152C35.5487 46.1226 38.8416 37.6023 39.4502 35.9751C39.7585 35.1501 40.0798 34.4747 40.1637 34.4747C40.2475 34.4747 41.0703 36.8501 41.9923 39.753C42.9143 42.6564 44.5202 47.632 45.5612 50.8103C46.6016 53.9885 48.416 59.5894 49.593 63.2564C52.5459 72.4588 52.8763 73.0779 55.2019 73.7777C57.6935 74.527 58.0324 74.2795 66.117 65.8122C73.176 58.4196 81.7706 49.4391 85.5809 45.4762C87.9739 42.987 88.2153 42.6211 88.2153 41.4832C88.2153 39.0879 86.0251 37.3263 83.9166 38.025C83.1697 38.2725 78.6834 42.8237 60.8838 61.3925C59.0546 63.3008 57.5014 64.8762 57.4328 64.8927C57.3637 64.9098 56.3352 61.8977 55.1469 58.2C50.5031 43.7522 48.5758 37.7417 47.179 33.3504C44.9747 26.4199 42.5663 24.3938 38.3339 25.9089Z" fill="white"/>
<path d="M73.3733 39.988L88.3998 37.2673L87.8332 52.0604" stroke="white" stroke-width="8.5" stroke-linecap="round"/>
</g>
<defs>
<clipPath id="clip0_45_2">
<rect width="102" height="99" fill="white"/>
</clipPath>
</defs>
</svg>
